<svg xmlns="http://www.w3.org/2000/svg" version="1.1" xmlns:xlink="http://www.w3.org/1999/xlink" width="200" height="200"><svg xmlns="http://www.w3.org/2000/svg" version="1.1" xmlns:xlink="http://www.w3.org/1999/xlink" viewBox="0 0 200 200"><rect width="200" height="200" fill="url('#gradient')"></rect><defs><linearGradient id="SvgjsLinearGradient1001" gradientTransform="rotate(45 0.5 0.5)"><stop offset="0%" stop-color="#0ce858"></stop><stop offset="100%" stop-color="#5742e3"></stop></linearGradient></defs><g><g fill="#cee1f5" transform="matrix(2.2204382929642446,0,0,2.2204382929642446,4.610984330386302,115.79157365647154)" stroke="#0e5278" stroke-width="0.3"><path d="M8.41-3.78L8.41-3.78Q8.41-4.53 7.88-4.95Q7.34-5.37 6.01-5.82Q4.67-6.27 3.82-6.69L3.82-6.69Q1.05-8.05 1.05-10.42L1.05-10.42Q1.05-11.60 1.74-12.50Q2.43-13.41 3.69-13.91Q4.95-14.41 6.52-14.41L6.52-14.41Q8.06-14.41 9.27-13.87Q10.49-13.32 11.16-12.31Q11.84-11.30 11.84-10L11.84-10L8.42-10Q8.42-10.87 7.89-11.35Q7.35-11.83 6.45-11.83L6.45-11.83Q5.53-11.83 5.00-11.42Q4.46-11.02 4.46-10.39L4.46-10.39Q4.46-9.84 5.05-9.40Q5.63-8.96 7.11-8.48Q8.58-8.01 9.53-7.46L9.53-7.46Q11.84-6.13 11.84-3.80L11.84-3.80Q11.84-1.93 10.43-0.87Q9.02 0.20 6.57 0.20L6.57 0.20Q4.84 0.20 3.44-0.42Q2.04-1.04 1.33-2.12Q0.63-3.20 0.63-4.61L0.63-4.61L4.06-4.61Q4.06-3.47 4.65-2.92Q5.24-2.38 6.57-2.38L6.57-2.38Q7.42-2.38 7.92-2.75Q8.41-3.12 8.41-3.78ZM21.69-4.81L25.10-4.81Q25.03-3.33 24.30-2.19Q23.56-1.05 22.24-0.43Q20.92 0.20 19.22 0.20L19.22 0.20Q16.42 0.20 14.80-1.63Q13.19-3.46 13.19-6.79L13.19-6.79L13.19-7.49Q13.19-9.58 13.92-11.15Q14.65-12.71 16.02-13.57Q17.38-14.42 19.18-14.42L19.18-14.42Q21.77-14.42 23.34-13.06Q24.91-11.70 25.13-9.31L25.13-9.31L21.71-9.31Q21.67-10.61 21.05-11.17Q20.44-11.74 19.18-11.74L19.18-11.74Q17.90-11.74 17.30-10.78Q16.71-9.82 16.68-7.72L16.68-7.72L16.68-6.72Q16.68-4.44 17.25-3.47Q17.82-2.49 19.22-2.49L19.22-2.49Q20.40-2.49 21.03-3.05Q21.65-3.60 21.69-4.81L21.69-4.81ZM38.76-7.47L38.76-6.82Q38.76-4.74 37.99-3.13Q37.22-1.53 35.80-0.67Q34.38 0.20 32.56 0.20Q30.74 0.20 29.34-0.64Q27.93-1.47 27.14-3.03Q26.36-4.58 26.32-6.59L26.32-6.59L26.32-7.39Q26.32-9.48 27.08-11.08Q27.85-12.68 29.28-13.54Q30.71-14.41 32.54-14.41L32.54-14.41Q34.35-14.41 35.76-13.55Q37.18-12.70 37.96-11.11Q38.75-9.52 38.76-7.47L38.76-7.47ZM35.27-6.76L35.27-7.41Q35.27-9.53 34.57-10.63Q33.86-11.73 32.54-11.73L32.54-11.73Q29.96-11.73 29.81-7.86L29.81-7.86L29.80-6.82Q29.80-4.73 30.50-3.60Q31.19-2.48 32.56-2.48L32.56-2.48Q33.86-2.48 34.56-3.58Q35.26-4.69 35.27-6.76L35.27-6.76ZM48.32 0L45.81-5.02L43.96-5.02L43.96 0L40.53 0L40.53-14.22L46.12-14.22Q48.65-14.22 50.08-13.10Q51.50-11.97 51.50-9.92L51.50-9.92Q51.50-8.44 50.90-7.46Q50.30-6.48 49.02-5.88L49.02-5.88L51.99-0.15L51.99 0L48.32 0ZM43.96-11.57L43.96-7.67L46.12-7.67Q47.10-7.67 47.59-8.18Q48.09-8.69 48.09-9.61Q48.09-10.53 47.59-11.05Q47.09-11.57 46.12-11.57L46.12-11.57L43.96-11.57ZM57.23-14.22L57.23 0L53.81 0L53.81-14.22L57.23-14.22ZM71.48-14.22L71.48 0L68.08 0L63.04-8.85L63.04 0L59.61 0L59.61-14.22L63.04-14.22L68.07-5.37L68.07-14.22L71.48-14.22ZM85.29-7.60L85.29-1.76Q84.50-0.88 82.98-0.34Q81.46 0.20 79.64 0.20L79.64 0.20Q76.85 0.20 75.18-1.51Q73.51-3.22 73.39-6.27L73.39-6.27L73.38-7.50Q73.38-9.60 74.12-11.17Q74.86-12.73 76.25-13.58Q77.63-14.42 79.44-14.42L79.44-14.42Q82.10-14.42 83.57-13.21Q85.04-11.99 85.28-9.58L85.28-9.58L81.98-9.58Q81.81-10.77 81.22-11.28Q80.63-11.79 79.56-11.79L79.56-11.79Q78.27-11.79 77.57-10.69Q76.87-9.60 76.86-7.57L76.86-7.57L76.86-6.71Q76.86-4.58 77.58-3.51Q78.31-2.44 79.87-2.44L79.87-2.44Q81.21-2.44 81.87-3.04L81.87-3.04L81.87-5.24L79.48-5.24L79.48-7.60L85.29-7.60Z"></path></g></g></svg><style>@media (prefers-color-scheme: light) { :root { filter: none; } }
@media (prefers-color-scheme: dark) { :root { filter: none; } }
</style></svg>